<svg width="1000" height="154" viewBox="0 0 1000 154" fill="none" xmlns="http://www.w3.org/2000/svg">
<path d="M776.192 80.6958H773.299L752.552 136.638H747.189L769.691 76.1143H779.722L802.109 136.629H796.833L776.192 80.6958ZM757.153 115.361H792.416V119.942H757.153V115.361Z" fill="#0F121A"/>
<path d="M818.381 74.6479H823.31V136.628H818.381V74.6479Z" fill="#0F121A"/>
<path d="M850.191 126.597L850.625 126.433V153.922H845.696V93.4079H850.277L850.625 102.918C851.89 100.02 853.942 97.5347 856.547 95.7421C859.649 93.6759 863.326 92.646 867.05 92.8003C870.664 92.7263 874.227 93.658 877.342 95.4913C880.367 97.351 882.807 100.025 884.383 103.208C886.16 106.88 887.033 110.925 886.929 115.004C887.028 119.051 886.186 123.066 884.47 126.732C882.945 129.91 880.546 132.586 877.554 134.448C874.385 136.346 870.743 137.306 867.05 137.217C863.2 137.371 859.4 136.297 856.199 134.149C853.49 132.285 851.398 129.656 850.191 126.597ZM881.663 115.023C881.663 109.609 880.252 105.317 877.429 102.147C876.007 100.582 874.26 99.3484 872.31 98.5319C870.361 97.7153 868.256 97.3359 866.144 97.4204C863.317 97.3773 860.534 98.1256 858.109 99.5809C855.73 101.041 853.824 103.158 852.621 105.677C851.261 108.61 850.601 111.82 850.692 115.052C850.616 118.277 851.297 121.474 852.679 124.388C853.893 126.913 855.795 129.043 858.167 130.533C860.605 131.998 863.406 132.747 866.25 132.693C870.976 132.693 874.738 131.108 877.535 127.938C880.332 124.768 881.708 120.46 881.663 115.013V115.023Z" fill="#0F121A"/>
<path d="M910.271 83.7242C909.782 83.7381 909.294 83.653 908.839 83.474C908.383 83.295 907.968 83.0257 907.619 82.6825C907.27 82.342 906.996 81.9332 906.814 81.4817C906.631 81.0302 906.544 80.5458 906.558 80.059C906.534 79.5651 906.614 79.0718 906.793 78.6107C906.971 78.1495 907.244 77.7308 907.593 77.3812C907.943 77.0316 908.362 76.7589 908.823 76.5805C909.284 76.4022 909.777 76.3221 910.271 76.3455C910.756 76.3441 911.235 76.4398 911.682 76.6268C912.129 76.8139 912.534 77.0886 912.873 77.4348C913.212 77.7809 913.478 78.1915 913.656 78.6422C913.833 79.0929 913.919 79.5746 913.907 80.059C913.919 80.543 913.829 81.0241 913.643 81.4711C913.457 81.9181 913.179 82.321 912.827 82.6535C912.494 82.9934 912.096 83.2632 911.657 83.4471C911.218 83.6309 910.747 83.7251 910.271 83.7242ZM907.763 93.3694H912.586V136.59H907.763V93.3694Z" fill="#0F121A"/>
<path d="M936.294 93.408H940.875L941.136 101.269C942.273 98.7014 944.155 96.5343 946.537 95.0477C949.191 93.4812 952.235 92.7017 955.314 92.8003C958.315 92.7434 961.279 93.4751 963.908 94.9223C966.463 96.3812 968.514 98.5807 969.792 101.23C971.315 104.577 972.038 108.233 971.904 111.908V136.628H966.976V112.428C966.976 107.529 965.882 103.78 963.696 101.182C961.51 98.5842 958.456 97.2982 954.533 97.3239C950.386 97.3239 947.129 98.7064 944.763 101.471C942.396 104.236 941.216 108.352 941.223 113.817V136.638H936.294V93.408Z" fill="#0F121A"/>
<path d="M996.2 136.966C995.693 136.981 995.188 136.888 994.719 136.694C994.25 136.499 993.828 136.207 993.48 135.837C992.781 135.087 992.392 134.1 992.392 133.074C992.392 132.048 992.781 131.061 993.48 130.311C993.828 129.941 994.25 129.649 994.719 129.455C995.188 129.26 995.693 129.167 996.2 129.182C996.701 129.177 997.197 129.275 997.658 129.469C998.119 129.663 998.536 129.95 998.882 130.311C999.599 131.052 1000 132.043 1000 133.074C1000 134.105 999.599 135.096 998.882 135.837C998.536 136.199 998.119 136.485 997.658 136.679C997.197 136.873 996.701 136.971 996.2 136.966Z" fill="#0F121A"/>
<path d="M30.913 6.30176H0V138.461H30.913V6.30176Z" fill="#0F121A"/>
<path d="M66.668 138.451V6.30176H140.647L174.579 40.2338V6.30176H205.502V138.451H174.579V77.3294L131.436 34.1862H97.5907V138.451H66.668Z" fill="#0F121A"/>
<path d="M351.618 24.2708C322.007 -5.34012 276.925 -8.26263 250.931 17.741C224.937 43.7446 227.85 88.8169 257.461 118.428C287.072 148.039 332.154 150.961 358.148 124.958C384.142 98.954 381.229 53.8721 351.618 24.2708ZM347.084 113.895C335.915 125.073 307.809 115.081 284.304 91.5851C260.798 68.0892 250.777 39.9733 261.994 28.8041C273.211 17.6349 301.27 27.6177 324.775 51.1232C348.281 74.6287 358.263 102.725 347.084 113.895Z" fill="#0F121A"/>
<path d="M388.579 6.30176H419.472L449.71 89.3474H452.382L459.307 108.368L496.461 6.30176H527.374L479.273 138.451H436.679L388.579 6.30176Z" fill="#0F121A"/>
<path d="M564.373 138.451H533.45L581.551 6.30176H624.173L672.274 138.451H641.361L603.407 34.1862H602.317L564.373 138.451Z" fill="#0F121A"/>
<path d="M581.233 89.3474H607.42L641.361 110.567H573.767L581.233 89.3474Z" fill="#0F121A"/>
</svg>
