<svg xmlns="http://www.w3.org/2000/svg" width="1000" height="356" fill="none" viewBox="0 0 1000 356"><circle cx="177.603" cy="177.603" r="169.078" fill="#fff" stroke="#35186E" stroke-width="17.05"/><path stroke="#E5421F" stroke-miterlimit="10" stroke-width="12.697" d="M89.5744 208.381C88.1484 194.786 87.4452 182.928 87.0936 173.279C85.9802 142.22 88.2071 125.03 91.0199 111.903C94.1258 97.3703 97.6419 89.088 104.42 82.2707C111.374 75.2971 118.797 72.8163 120.907 72.1717C123.055 71.5076 140.187 66.5655 152.669 76.7231C156.595 79.9071 158.607 83.4232 160.013 85.8845C163.705 92.3892 164.584 98.5424 165.229 112.138C165.737 122.999 165.541 127.042 165.854 138.391C166.362 157.007 167.202 162.535 169.507 165.289C170.054 165.954 170.757 166.481 170.757 166.481C171.46 167.047 174.273 169.294 178.297 168.923C178.668 168.884 181.93 168.532 184.509 165.973C185.7 164.782 186.267 163.59 186.384 163.317C187.068 161.832 187.185 160.504 187.244 159.644C187.283 159 187.263 158.589 187.146 156.753C187.068 155.64 186.97 154.253 186.833 152.632M262.527 208.244C263.933 194.648 264.617 182.772 264.949 173.122C266.004 142.063 263.757 124.874 260.925 111.747C257.8 97.2333 254.264 88.9509 247.466 82.1336C240.493 75.1601 233.07 72.7183 230.98 72.0737C228.831 71.4096 211.7 66.5066 199.237 76.6837C195.33 79.8872 193.299 83.3838 191.912 85.8451C188.24 92.3694 187.361 98.503 186.736 112.099C186.189 124.19 186.032 133.527 186.15 138.352C186.345 146.498 186.814 153.295 187.243 158.198M103.561 148.842C108.718 150.6 117.84 152.963 129.209 151.869C138.331 150.99 145.461 148.236 149.973 146.048M248.814 144.583C243.755 146.595 234.75 149.408 223.342 148.881C214.181 148.451 206.934 146.048 202.324 144.095M58.5938 248.015C61.7778 246.433 66.0361 243.874 70.3531 239.85C74.2599 236.177 76.936 232.485 78.7136 229.614M296.262 245.925C293.019 244.46 288.663 242.077 284.209 238.228C280.146 234.712 277.333 231.118 275.458 228.325M68.9076 241.158C96.3135 265.556 136.26 280.539 180.446 279.679C222.639 278.859 260.378 263.759 286.729 240.26M223.694 273.585C223.83 271.534 223.83 269.385 223.694 267.178C222.736 253.211 215.978 242.311 208.574 242.799C201.191 243.307 195.956 255.028 196.913 268.994C197.147 272.354 197.714 275.538 198.534 278.409M213.809 264.423L205.879 265.185"/><path fill="#fff" d="M418.138 146.599C417.177 146.599 416.392 146.293 415.781 145.682C415.17 144.984 414.864 144.155 414.864 143.195V130.494C414.864 129.272 415.082 128.268 415.519 127.483C416.043 126.697 416.479 126.13 416.828 125.781L458.988 74.4555H419.316C418.443 74.4555 417.657 74.15 416.959 73.539C416.348 72.928 416.043 72.1424 416.043 71.1823V58.2201C416.043 57.2599 416.348 56.4743 416.959 55.8633C417.657 55.2523 418.443 54.9468 419.316 54.9468H485.436C486.396 54.9468 487.182 55.2523 487.793 55.8633C488.404 56.4743 488.71 57.2599 488.71 58.2201V70.9204C488.71 71.8806 488.535 72.7098 488.186 73.4081C487.924 74.1064 487.531 74.761 487.007 75.3721L446.026 126.828H486.877C487.837 126.828 488.622 127.177 489.233 127.876C489.932 128.487 490.281 129.272 490.281 130.232V143.325C490.281 144.198 489.932 144.984 489.233 145.682C488.622 146.293 487.837 146.599 486.877 146.599H418.138Z"/><path fill="#fff" d="M540.89 147.908C532.859 147.908 525.876 146.599 519.941 143.98C514.005 141.361 509.379 137.434 506.062 132.196C502.745 126.872 500.912 120.238 500.563 112.295C500.476 108.541 500.432 104.788 500.432 101.035C500.432 97.194 500.476 93.3969 500.563 89.6436C500.912 81.7877 502.745 75.1975 506.062 69.8729C509.466 64.4611 514.136 60.4022 520.072 57.6963C526.095 54.9904 533.034 53.6375 540.89 53.6375C548.833 53.6375 555.772 54.9904 561.708 57.6963C567.643 60.4022 572.313 64.4611 575.718 69.8729C579.122 75.1975 580.955 81.7877 581.217 89.6436C581.391 93.3969 581.479 97.194 581.479 101.035C581.479 104.788 581.391 108.541 581.217 112.295C580.955 120.238 579.122 126.872 575.718 132.196C572.401 137.434 567.774 141.361 561.839 143.98C555.903 146.599 548.92 147.908 540.89 147.908ZM540.89 129.054C545.516 129.054 549.269 127.657 552.15 124.864C555.118 122.071 556.689 117.619 556.863 111.509C557.038 107.668 557.125 104.046 557.125 100.642C557.125 97.2376 557.038 93.7025 556.863 90.0364C556.689 85.9339 555.903 82.6169 554.507 80.0856C553.197 77.467 551.364 75.5466 549.008 74.3246C546.651 73.1026 543.945 72.4916 540.89 72.4916C537.922 72.4916 535.26 73.1026 532.903 74.3246C530.546 75.5466 528.67 77.467 527.273 80.0856C525.876 82.6169 525.091 85.9339 524.916 90.0364C524.829 93.7025 524.785 97.2376 524.785 100.642C524.785 104.046 524.829 107.668 524.916 111.509C525.178 117.619 526.749 122.071 529.63 124.864C532.597 127.657 536.351 129.054 540.89 129.054Z"/><path fill="#fff" d="M599.929 146.599C598.968 146.599 598.183 146.293 597.572 145.682C596.961 144.984 596.655 144.198 596.655 143.325V58.2201C596.655 57.2599 596.961 56.4743 597.572 55.8633C598.183 55.2523 598.968 54.9468 599.929 54.9468H661.074C662.034 54.9468 662.819 55.2523 663.43 55.8633C664.041 56.4743 664.347 57.2599 664.347 58.2201V70.5276C664.347 71.4878 664.041 72.2733 663.43 72.8844C662.819 73.4954 662.034 73.8009 661.074 73.8009H619.306V91.4766H658.193C659.153 91.4766 659.939 91.8258 660.55 92.5241C661.161 93.1351 661.466 93.9207 661.466 94.8808V106.272C661.466 107.145 661.161 107.93 660.55 108.629C659.939 109.24 659.153 109.545 658.193 109.545H619.306V127.745H662.121C663.081 127.745 663.867 128.05 664.478 128.661C665.089 129.272 665.394 130.058 665.394 131.018V143.325C665.394 144.198 665.089 144.984 664.478 145.682C663.867 146.293 663.081 146.599 662.121 146.599H599.929Z"/><path fill="#fff" d="M683.551 146.599C682.591 146.599 681.805 146.293 681.194 145.682C680.583 144.984 680.277 144.198 680.277 143.325V58.2201C680.277 57.2599 680.583 56.4743 681.194 55.8633C681.805 55.2523 682.591 54.9468 683.551 54.9468H701.096C702.056 54.9468 702.841 55.2523 703.452 55.8633C704.151 56.4743 704.5 57.2599 704.5 58.2201V143.325C704.5 144.198 704.151 144.984 703.452 145.682C702.841 146.293 702.056 146.599 701.096 146.599H683.551Z"/><path fill="#fff" d="M726.001 146.599C725.041 146.599 724.255 146.293 723.644 145.682C723.033 144.984 722.728 144.198 722.728 143.325V58.2201C722.728 57.2599 723.033 56.4743 723.644 55.8633C724.255 55.2523 725.041 54.9468 726.001 54.9468H761.614C772.962 54.9468 781.865 57.5654 788.325 62.8026C794.784 67.9526 798.013 75.2848 798.013 84.7991C798.013 90.9965 796.53 96.2338 793.562 100.511C790.594 104.788 786.666 108.018 781.778 110.2L799.716 142.409C799.977 142.933 800.108 143.413 800.108 143.849C800.108 144.547 799.803 145.202 799.192 145.813C798.668 146.337 798.057 146.599 797.359 146.599H779.945C778.286 146.599 777.064 146.206 776.279 145.42C775.493 144.547 774.926 143.762 774.577 143.064L759.651 114.259H746.296V143.325C746.296 144.198 745.946 144.984 745.248 145.682C744.637 146.293 743.851 146.599 742.891 146.599H726.001ZM746.296 95.6664H761.353C765.455 95.6664 768.51 94.6626 770.518 92.655C772.613 90.6474 773.66 87.9415 773.66 84.5373C773.66 81.133 772.656 78.3835 770.649 76.2886C768.728 74.1937 765.63 73.1462 761.353 73.1462H746.296V95.6664Z"/><path fill="#fff" d="M808.017 146.599C807.319 146.599 806.664 146.337 806.053 145.813C805.53 145.202 805.268 144.547 805.268 143.849C805.268 143.413 805.311 143.02 805.399 142.671L836.168 58.6128C836.429 57.6527 836.953 56.8234 837.739 56.1251C838.612 55.3396 839.79 54.9468 841.274 54.9468H860.652C862.136 54.9468 863.27 55.3396 864.056 56.1251C864.929 56.8234 865.496 57.6527 865.758 58.6128L896.396 142.671C896.571 143.02 896.658 143.413 896.658 143.849C896.658 144.547 896.352 145.202 895.741 145.813C895.218 146.337 894.563 146.599 893.777 146.599H877.673C876.364 146.599 875.36 146.293 874.661 145.682C874.05 144.984 873.658 144.373 873.483 143.849L868.377 130.494H833.418L828.443 143.849C828.268 144.373 827.875 144.984 827.264 145.682C826.653 146.293 825.606 146.599 824.122 146.599H808.017ZM838.786 111.64H863.139L850.963 77.0742L838.786 111.64Z"/><path fill="#fff" d="M456.631 303.333C448.426 303.333 441.356 301.98 435.42 299.274C429.485 296.568 424.859 292.596 421.542 287.359C418.312 282.122 416.523 275.619 416.174 267.85C416.086 264.272 416.043 260.431 416.043 256.328C416.043 252.226 416.086 248.298 416.174 244.545C416.523 236.951 418.356 230.491 421.673 225.167C424.99 219.842 429.616 215.827 435.551 213.121C441.487 210.415 448.514 209.062 456.631 209.062C462.392 209.062 467.717 209.804 472.605 211.288C477.493 212.685 481.77 214.78 485.436 217.573C489.102 220.279 491.939 223.596 493.947 227.524C496.042 231.364 497.133 235.729 497.22 240.617C497.307 241.402 497.046 242.057 496.435 242.581C495.911 243.104 495.256 243.366 494.471 243.366H476.795C475.66 243.366 474.787 243.148 474.176 242.712C473.565 242.188 473.041 241.271 472.605 239.962C471.383 235.336 469.375 232.193 466.582 230.535C463.876 228.789 460.516 227.916 456.5 227.916C451.7 227.916 447.903 229.269 445.109 231.975C442.316 234.594 440.789 239.002 440.527 245.199C440.265 252.357 440.265 259.689 440.527 267.196C440.789 273.393 442.316 277.845 445.109 280.551C447.903 283.169 451.7 284.479 456.5 284.479C460.516 284.479 463.92 283.606 466.713 281.86C469.506 280.114 471.47 276.972 472.605 272.433C472.954 271.124 473.434 270.251 474.045 269.814C474.744 269.291 475.66 269.029 476.795 269.029H494.471C495.256 269.029 495.911 269.291 496.435 269.814C497.046 270.338 497.307 270.993 497.22 271.778C497.133 276.666 496.042 281.075 493.947 285.002C491.939 288.843 489.102 292.16 485.436 294.953C481.77 297.659 477.493 299.754 472.605 301.238C467.717 302.635 462.392 303.333 456.631 303.333Z"/><path fill="#fff" d="M548.434 303.333C540.403 303.333 533.42 302.024 527.485 299.405C521.549 296.786 516.923 292.858 513.606 287.621C510.289 282.297 508.456 275.663 508.107 267.719C508.02 263.966 507.976 260.213 507.976 256.459C507.976 252.619 508.02 248.822 508.107 245.068C508.456 237.212 510.289 230.622 513.606 225.298C517.01 219.886 521.68 215.827 527.616 213.121C533.638 210.415 540.578 209.062 548.434 209.062C556.377 209.062 563.316 210.415 569.252 213.121C575.187 215.827 579.857 219.886 583.261 225.298C586.666 230.622 588.499 237.212 588.761 245.068C588.935 248.822 589.022 252.619 589.022 256.459C589.022 260.213 588.935 263.966 588.761 267.719C588.499 275.663 586.666 282.297 583.261 287.621C579.944 292.858 575.318 296.786 569.383 299.405C563.447 302.024 556.464 303.333 548.434 303.333ZM548.434 284.479C553.06 284.479 556.813 283.082 559.694 280.289C562.662 277.496 564.233 273.044 564.407 266.934C564.582 263.093 564.669 259.471 564.669 256.067C564.669 252.662 564.582 249.127 564.407 245.461C564.233 241.359 563.447 238.042 562.051 235.51C560.741 232.892 558.908 230.971 556.551 229.749C554.195 228.527 551.489 227.916 548.434 227.916C545.466 227.916 542.804 228.527 540.447 229.749C538.09 230.971 536.213 232.892 534.817 235.51C533.42 238.042 532.635 241.359 532.46 245.461C532.373 249.127 532.329 252.662 532.329 256.067C532.329 259.471 532.373 263.093 532.46 266.934C532.722 273.044 534.293 277.496 537.174 280.289C540.141 283.082 543.895 284.479 548.434 284.479Z"/><path fill="#fff" d="M641.646 303.333C633.615 303.333 626.632 302.024 620.697 299.405C614.761 296.786 610.135 292.858 606.818 287.621C603.501 282.297 601.668 275.663 601.319 267.719C601.231 263.966 601.188 260.213 601.188 256.459C601.188 252.619 601.231 248.822 601.319 245.068C601.668 237.212 603.501 230.622 606.818 225.298C610.222 219.886 614.892 215.827 620.827 213.121C626.85 210.415 633.79 209.062 641.646 209.062C649.589 209.062 656.528 210.415 662.464 213.121C668.399 215.827 673.069 219.886 676.473 225.298C679.878 230.622 681.711 237.212 681.972 245.068C682.147 248.822 682.234 252.619 682.234 256.459C682.234 260.213 682.147 263.966 681.972 267.719C681.711 275.663 679.878 282.297 676.473 287.621C673.156 292.858 668.53 296.786 662.595 299.405C656.659 302.024 649.676 303.333 641.646 303.333ZM641.646 284.479C646.272 284.479 650.025 283.082 652.906 280.289C655.873 277.496 657.445 273.044 657.619 266.934C657.794 263.093 657.881 259.471 657.881 256.067C657.881 252.662 657.794 249.127 657.619 245.461C657.445 241.359 656.659 238.042 655.262 235.51C653.953 232.892 652.12 230.971 649.763 229.749C647.407 228.527 644.701 227.916 641.646 227.916C638.678 227.916 636.016 228.527 633.659 229.749C631.302 230.971 629.425 232.892 628.029 235.51C626.632 238.042 625.847 241.359 625.672 245.461C625.585 249.127 625.541 252.662 625.541 256.067C625.541 259.471 625.585 263.093 625.672 266.934C625.934 273.044 627.505 277.496 630.385 280.289C633.353 283.082 637.107 284.479 641.646 284.479Z"/><path fill="#fff" d="M700.684 302.024C699.724 302.024 698.939 301.718 698.328 301.107C697.717 300.409 697.411 299.623 697.411 298.75V213.645C697.411 212.685 697.717 211.899 698.328 211.288C698.939 210.677 699.724 210.372 700.684 210.372H717.182C718.142 210.372 718.927 210.677 719.538 211.288C720.149 211.899 720.455 212.685 720.455 213.645V242.712L744.677 212.859C745.026 212.336 745.594 211.812 746.379 211.288C747.252 210.677 748.387 210.372 749.784 210.372H768.638C769.423 210.372 770.078 210.677 770.602 211.288C771.125 211.812 771.387 212.423 771.387 213.121C771.387 213.732 771.256 214.256 770.994 214.692L739.571 254.234L773.351 297.703C773.7 298.052 773.875 298.576 773.875 299.274C773.875 299.972 773.613 300.627 773.089 301.238C772.566 301.762 771.911 302.024 771.125 302.024H751.617C750.045 302.024 748.823 301.674 747.951 300.976C747.165 300.278 746.641 299.754 746.379 299.405L720.455 267.065V298.75C720.455 299.623 720.149 300.409 719.538 301.107C718.927 301.718 718.142 302.024 717.182 302.024H700.684Z"/><path fill="#fff" d="M787.503 302.024C786.543 302.024 785.757 301.718 785.146 301.107C784.535 300.409 784.23 299.623 784.23 298.75V213.645C784.23 212.685 784.535 211.899 785.146 211.288C785.757 210.677 786.543 210.372 787.503 210.372H805.048C806.008 210.372 806.794 210.677 807.405 211.288C808.103 211.899 808.452 212.685 808.452 213.645V298.75C808.452 299.623 808.103 300.409 807.405 301.107C806.794 301.718 806.008 302.024 805.048 302.024H787.503Z"/><path fill="#fff" d="M829.953 302.024C828.993 302.024 828.208 301.718 827.597 301.107C826.986 300.409 826.68 299.623 826.68 298.75V213.645C826.68 212.685 826.986 211.899 827.597 211.288C828.208 210.677 828.993 210.372 829.953 210.372H843.832C845.316 210.372 846.364 210.721 846.975 211.419C847.673 212.03 848.109 212.51 848.284 212.859L880.231 263.137V213.645C880.231 212.685 880.537 211.899 881.148 211.288C881.759 210.677 882.544 210.372 883.504 210.372H899.216C900.176 210.372 900.962 210.677 901.573 211.288C902.184 211.899 902.489 212.685 902.489 213.645V298.619C902.489 299.579 902.184 300.409 901.573 301.107C900.962 301.718 900.176 302.024 899.216 302.024H885.207C883.81 302.024 882.762 301.674 882.064 300.976C881.453 300.278 881.06 299.798 880.886 299.536L848.939 251.091V298.75C848.939 299.623 848.633 300.409 848.022 301.107C847.411 301.718 846.625 302.024 845.665 302.024H829.953Z"/><path fill="#fff" d="M958.626 303.333C950.334 303.333 943.176 301.98 937.154 299.274C931.218 296.481 926.592 292.466 923.275 287.228C920.045 281.904 918.256 275.444 917.907 267.85C917.819 264.097 917.776 260.125 917.776 255.936C917.776 251.659 917.819 247.6 917.907 243.759C918.256 236.34 920.089 230.055 923.406 224.905C926.723 219.755 931.393 215.827 937.415 213.121C943.438 210.415 950.509 209.062 958.626 209.062C965.173 209.062 970.978 209.891 976.04 211.55C981.103 213.121 985.336 215.26 988.741 217.966C992.232 220.671 994.894 223.639 996.727 226.869C998.56 230.099 999.521 233.285 999.608 236.427C999.608 237.212 999.302 237.867 998.691 238.391C998.168 238.915 997.513 239.176 996.727 239.176H977.611C976.651 239.176 975.909 239.046 975.386 238.784C974.949 238.435 974.556 237.954 974.207 237.343C973.596 236.034 972.68 234.681 971.458 233.285C970.323 231.801 968.708 230.535 966.613 229.488C964.606 228.44 961.943 227.916 958.626 227.916C953.738 227.916 949.854 229.226 946.973 231.844C944.093 234.463 942.522 238.653 942.26 244.414C941.998 251.92 941.998 259.514 942.26 267.196C942.522 273.306 944.137 277.714 947.104 280.42C950.072 283.126 954.044 284.479 959.019 284.479C962.249 284.479 965.129 283.911 967.661 282.777C970.279 281.642 972.33 279.896 973.814 277.539C975.298 275.095 976.04 271.997 976.04 268.243V265.756H963.733C962.772 265.756 961.987 265.45 961.376 264.839C960.765 264.141 960.459 263.311 960.459 262.351V252.662C960.459 251.702 960.765 250.917 961.376 250.306C961.987 249.607 962.772 249.258 963.733 249.258H996.727C997.688 249.258 998.473 249.607 999.084 250.306C999.695 250.917 1000 251.702 1000 252.662V267.589C1000 275.095 998.299 281.511 994.894 286.835C991.49 292.16 986.646 296.263 980.361 299.143C974.163 301.936 966.919 303.333 958.626 303.333Z"/></svg>