<svg xmlns="http://www.w3.org/2000/svg" width="1000" height="188" fill="none" viewBox="0 0 1000 188"><path fill="#F2F2F8" d="M325.106 63.3625C304.835 63.3625 291.262 79.2868 291.262 100.995C291.262 122.892 305.203 138.449 325.106 138.449C340.116 138.449 351.338 128.865 355.684 115.649H374.316C368.354 139.05 349.889 153.648 325.106 153.648C293.435 153.648 271.906 131.216 271.906 100.995C271.906 70.4164 293.614 48.1625 325.106 48.1625C350.435 48.1625 368.566 63.1842 374.316 86.1624H355.684C351.16 72.5894 339.76 63.3625 325.106 63.3625Z"/><path fill="#F2F2F8" d="M398.543 78.8967C406.276 70.7953 417.086 66.8616 430.581 66.8616C444.076 66.8616 454.885 70.8287 462.63 78.9302C470.375 87.0316 474.331 97.2838 474.331 109.709C474.331 122.134 470.364 132.364 462.63 140.41C454.896 148.456 444.265 152.478 430.759 152.478H430.581C417.086 152.478 406.276 148.511 398.543 140.41C390.809 132.308 386.842 122.056 386.842 109.631C386.842 97.2058 390.798 86.9982 398.543 78.8967ZM430.581 81.9835C415.102 81.9835 405.195 94.041 405.195 110.066C405.195 126.268 414.924 138.148 430.581 138.148C446.962 138.148 455.966 125.722 455.966 110.066C455.966 94.041 446.249 81.9835 430.581 81.9835Z"/><path fill="#F2F2F8" d="M510.548 80.8246C516.498 70.6393 528.021 66.4493 539.376 66.4493C561.53 66.4493 573.064 79.3648 573.064 102.655V150.673H554.632V103.157C554.632 89.4721 546.675 82.095 534.841 82.095C521.948 82.095 512.23 89.6504 512.23 103.157V150.673H493.799V67.7308H509.834L510.548 80.8246Z"/><path fill="#F2F2F8" d="M593.535 110.032C593.535 84.3126 610.807 67.2293 637.24 67.2293C658.101 67.2293 673.39 80.1783 677.357 99.0668H667.105L659.706 98.8885C656.474 88.6363 648.016 81.9724 637.229 81.9724C621.761 81.9724 611.866 94.0298 611.866 110.032C611.866 126.748 622.486 138.27 637.229 138.27C648.562 138.27 656.652 130.893 659.706 121.187H677.335C673.201 140.421 657.912 152.835 637.218 152.835C610.083 152.835 593.535 135.573 593.535 110.032Z"/><path fill="#F2F2F8" d="M741.289 65.8809C767.298 65.8809 784.158 84.3794 784.158 109.486V114.612H717.296C718.945 128.898 728.106 138.014 742.392 138.014C751.006 138.014 757.413 134.348 761.993 127.205H782.698C776.101 144.065 761.08 153.036 742.392 153.036C714.365 153.036 698.252 134.905 698.252 109.442C698.241 83.8334 715.09 65.8809 741.289 65.8809ZM742.559 81.1589C729.331 81.1589 721.575 89.8064 719.636 101.975H765.325C763.342 89.6281 755.43 81.1589 742.559 81.1589Z"/><path fill="#F2F2F8" d="M805.331 67.7308V150.673H823.763V67.7308H805.331Z"/><path fill="#F2F2F8" d="M887.538 136.833C890.315 136.857 893.089 136.678 895.84 136.298L899.295 135.952V150.551L895.796 151.286C893.064 151.835 890.279 152.081 887.493 152.022C877.717 152.022 870.161 149.793 864.827 145.335C859.478 140.878 856.893 132.62 856.893 120.273V82.4627H844.033V67.7308H856.949V49.288H875.38V69.5695H895.662V82.4627H875.38V120.641C875.369 131.796 877.587 136.833 887.538 136.833Z"/><path fill="#F2F2F8" d="M924.212 78.8967C931.957 70.7953 942.755 66.8616 956.261 66.8616C969.767 66.8616 980.565 70.8287 988.299 78.9302C996.033 87.0316 1000 97.2838 1000 109.709C1000 122.134 996.044 132.364 988.299 140.41C980.554 148.456 969.934 152.478 956.439 152.478H956.261C942.755 152.478 931.957 148.511 924.212 140.41C916.467 132.308 912.511 122.056 912.511 109.631C912.511 97.2058 916.478 86.9982 924.212 78.8967ZM956.261 81.9835C940.783 81.9835 930.876 94.041 930.876 110.066C930.876 126.268 940.593 138.148 956.261 138.148C972.642 138.148 981.646 125.722 981.646 110.066C981.646 94.041 971.918 81.9835 956.261 81.9835Z"/><path fill="#F2F2F8" d="M815.004 58.5038C821.878 58.5038 827.451 53.1404 827.451 46.5244C827.451 39.9083 821.878 34.5449 815.004 34.5449C808.129 34.5449 802.556 39.9083 802.556 46.5244C802.556 53.1404 808.129 58.5038 815.004 58.5038Z"/><path fill="#000" d="M88.0273 69.6841V187.214H0V0H18.3617L88.0273 69.6841Z"/><path fill="#000" d="M187.214 0V187.214H112.31V59.5487L52.7518 0H187.214Z"/><path fill="url(#paint0_linear_609_2)" d="M88.0273 69.6841V187.214H0V0H18.3617L88.0273 69.6841Z"/><path fill="#AA0E10" d="M187.214 0V187.214H112.31V59.5487L52.7519 0H187.214Z"/><defs><linearGradient id="paint0_linear_609_2" x1="-61.847" x2="172.17" y1="93.607" y2="93.607" gradientUnits="userSpaceOnUse"><stop stop-color="#AA0E10"/><stop offset="1" stop-color="#AA0E10" stop-opacity="0"/></linearGradient></defs></svg>