<svg width="57" height="17" viewBox="0 0 57 17" fill="none" xmlns="http://www.w3.org/2000/svg">
<path d="M0.130859 15.8296V0H10.2166V2.4649H2.86712V6.62583H9.5834V9.09073H2.86712V13.3647H10.3297V15.8296H0.130859Z" fill="white"/>
<path d="M12.787 15.8296V4.65843H15.3423V6.21878H15.7267C15.9227 5.79666 16.277 5.39715 16.7896 5.02025C17.3022 4.64336 18.0786 4.45491 19.1188 4.45491C19.9781 4.45491 20.7395 4.65089 21.4028 5.04287C22.0661 5.43484 22.5787 5.97757 22.9405 6.67105C23.3174 7.36454 23.5059 8.18618 23.5059 9.13595V15.8296H20.9053V9.33948C20.9053 8.43493 20.6792 7.76405 20.2269 7.32685C19.7897 6.87458 19.164 6.64844 18.3499 6.64844C17.4303 6.64844 16.7067 6.9575 16.179 7.5756C15.6514 8.17864 15.3875 9.0455 15.3875 10.1762V15.8296H12.787Z" fill="white"/>
<path d="M31.9235 16.1462C30.838 16.1462 29.8581 15.9201 28.9837 15.4678C28.1093 15.0155 27.4158 14.3597 26.9032 13.5004C26.4057 12.6411 26.157 11.6084 26.157 10.4023V10.0857C26.157 8.87966 26.4057 7.84697 26.9032 6.98765C27.4158 6.12832 28.1093 5.47253 28.9837 5.02025C29.8581 4.56798 30.838 4.34184 31.9235 4.34184C32.9939 4.34184 33.906 4.53029 34.6598 4.90718C35.4286 5.28408 36.0467 5.80419 36.5141 6.46753C36.9814 7.11579 37.2829 7.84697 37.4186 8.66107L34.9085 9.18118C34.8482 8.71383 34.705 8.29171 34.4788 7.91481C34.2527 7.52284 33.9286 7.21378 33.5064 6.98765C33.0994 6.76151 32.5944 6.64844 31.9913 6.64844C31.3732 6.64844 30.8154 6.78412 30.3179 7.05549C29.8355 7.31178 29.451 7.70375 29.1646 8.2314C28.8932 8.75906 28.7576 9.39224 28.7576 10.131V10.3571C28.7576 11.0958 28.8932 11.729 29.1646 12.2566C29.451 12.7692 29.8355 13.1612 30.3179 13.4326C30.8154 13.7039 31.3732 13.8396 31.9913 13.8396C32.911 13.8396 33.6044 13.6059 34.0718 13.1386C34.5542 12.6562 34.8557 12.038 34.9763 11.2843L37.4865 11.8722C37.3056 12.6562 36.9814 13.3723 36.5141 14.0205C36.0467 14.6688 35.4286 15.1889 34.6598 15.5809C33.906 15.9578 32.9939 16.1462 31.9235 16.1462Z" fill="white"/>
<path d="M45.1269 16.1462C44.0113 16.1462 43.0238 15.9125 42.1645 15.4452C41.3203 14.9628 40.6569 14.2919 40.1745 13.4326C39.7071 12.5582 39.4735 11.5405 39.4735 10.3797V10.1083C39.4735 8.93243 39.7071 7.91481 40.1745 7.05549C40.6418 6.19617 41.2976 5.53283 42.1419 5.06548C42.9861 4.58305 43.9585 4.34184 45.0591 4.34184C46.1445 4.34184 47.0943 4.58305 47.9084 5.06548C48.7225 5.53283 49.3557 6.19617 49.808 7.05549C50.2602 7.91481 50.4864 8.91735 50.4864 10.0631V10.9903H42.0967C42.1268 11.8647 42.4359 12.5657 43.0238 13.0934C43.6118 13.621 44.3354 13.8848 45.1948 13.8848C46.039 13.8848 46.6646 13.7039 47.0717 13.3421C47.4787 12.9652 47.7878 12.5431 47.9989 12.0757L50.1472 13.1838C49.9361 13.5909 49.627 14.0281 49.22 14.4954C48.828 14.9477 48.3004 15.3397 47.637 15.6713C46.9737 15.9879 46.137 16.1462 45.1269 16.1462ZM42.1193 9.02288H47.8406C47.7803 8.28417 47.4938 7.69621 46.9812 7.25901C46.4837 6.82181 45.8355 6.60321 45.0365 6.60321C44.2073 6.60321 43.5439 6.82181 43.0464 7.25901C42.5489 7.69621 42.2399 8.28417 42.1193 9.02288Z" fill="white"/>
<path d="M54.6291 16.1462C54.0562 16.1462 53.5738 15.9578 53.1818 15.5809C52.8049 15.204 52.6165 14.7215 52.6165 14.1336C52.6165 13.5607 52.8049 13.0858 53.1818 12.7089C53.5738 12.332 54.0562 12.1436 54.6291 12.1436C55.202 12.1436 55.6769 12.332 56.0538 12.7089C56.4307 13.0858 56.6191 13.5682 56.6191 14.1562C56.6191 14.7442 56.4307 15.2266 56.0538 15.6035C55.6769 15.9653 55.202 16.1462 54.6291 16.1462Z" fill="white"/>
</svg>
