<svg width="197" height="49" viewBox="0 0 197 49" fill="none" xmlns="http://www.w3.org/2000/svg">
<path d="M0 47.4378V0H30.2247V7.38674H8.19996V19.8561H28.3271V27.2429H8.19996V40.0511H30.5635V47.4378H0Z" fill="white"/>
<path d="M37.9275 47.4378V13.9603H45.5853V18.6363H46.7373C47.3247 17.3713 48.3864 16.174 49.9225 15.0446C51.4585 13.9151 53.7852 13.3504 56.9026 13.3504C59.4778 13.3504 61.7593 13.9377 63.7472 15.1123C65.7351 16.287 67.2711 17.9134 68.3554 19.9916C69.4849 22.0699 70.0496 24.5321 70.0496 27.3784V47.4378H62.2563V27.9883C62.2563 25.2776 61.5786 23.2671 60.2232 21.9569C58.913 20.6016 57.0381 19.9239 54.5985 19.9239C51.8426 19.9239 49.674 20.85 48.0927 22.7024C46.5115 24.5095 45.7208 27.1073 45.7208 30.4957V47.4378H37.9275Z" fill="white"/>
<path d="M95.2753 48.3866C92.0224 48.3866 89.0858 47.7089 86.4654 46.3535C83.8451 44.9981 81.7668 43.0329 80.2308 40.4577C78.7399 37.8825 77.9944 34.7877 77.9944 31.1734V30.2247C77.9944 26.6103 78.7399 23.5156 80.2308 20.9404C81.7668 18.3652 83.8451 16.3999 86.4654 15.0446C89.0858 13.6892 92.0224 13.0115 95.2753 13.0115C98.483 13.0115 101.216 13.5762 103.475 14.7057C105.779 15.8352 107.632 17.3939 109.032 19.3817C110.433 21.3244 111.336 23.5156 111.743 25.9553L104.221 27.5139C104.04 26.1134 103.611 24.8484 102.933 23.7189C102.255 22.5443 101.284 21.6181 100.019 20.9404C98.7993 20.2627 97.2858 19.9239 95.4786 19.9239C93.6263 19.9239 91.9547 20.3305 90.4638 21.1437C89.0181 21.9117 87.866 23.0864 87.0076 24.6677C86.1944 26.2489 85.7878 28.1464 85.7878 30.3602V31.0379C85.7878 33.2516 86.1944 35.1492 87.0076 36.7304C87.866 38.2665 89.0181 39.4411 90.4638 40.2544C91.9547 41.0676 93.6263 41.4742 95.4786 41.4742C98.2345 41.4742 100.313 40.7739 101.713 39.3734C103.159 37.9277 104.063 36.0753 104.424 33.8164L111.946 35.5784C111.404 37.9277 110.433 40.0736 109.032 42.0163C107.632 43.959 105.779 45.5177 103.475 46.6923C101.216 47.8218 98.483 48.3866 95.2753 48.3866Z" fill="white"/>
<path d="M134.843 48.3866C131.5 48.3866 128.541 47.6863 125.965 46.2857C123.435 44.84 121.447 42.8296 120.002 40.2544C118.601 37.634 117.901 34.5844 117.901 31.1056V30.2924C117.901 26.7685 118.601 23.7189 120.002 21.1437C121.402 18.5685 123.368 16.5806 125.898 15.1801C128.428 13.7344 131.342 13.0115 134.64 13.0115C137.893 13.0115 140.739 13.7344 143.178 15.1801C145.618 16.5806 147.516 18.5685 148.871 21.1437C150.226 23.7189 150.904 26.7233 150.904 30.1569V32.9354H125.762C125.852 35.5558 126.779 37.6566 128.541 39.2378C130.303 40.8191 132.471 41.6097 135.046 41.6097C137.576 41.6097 139.451 41.0676 140.671 39.9833C141.891 38.8538 142.817 37.5888 143.45 36.1883L149.888 39.5089C149.255 40.7287 148.329 42.0389 147.109 43.4395C145.934 44.7948 144.353 45.9695 142.365 46.9634C140.377 47.9122 137.87 48.3866 134.843 48.3866ZM125.83 27.0395H142.975C142.794 24.8258 141.936 23.0638 140.4 21.7536C138.909 20.4434 136.966 19.7883 134.572 19.7883C132.087 19.7883 130.099 20.4434 128.608 21.7536C127.117 23.0638 126.191 24.8258 125.83 27.0395Z" fill="white"/>
<path d="M163.319 48.3866C161.602 48.3866 160.156 47.8218 158.982 46.6923C157.852 45.5629 157.288 44.1172 157.288 42.3552C157.288 40.6384 157.852 39.2152 158.982 38.0858C160.156 36.9563 161.602 36.3916 163.319 36.3916C165.036 36.3916 166.459 36.9563 167.588 38.0858C168.718 39.2152 169.283 40.661 169.283 42.4229C169.283 44.1849 168.718 45.6306 167.588 46.7601C166.459 47.8444 165.036 48.3866 163.319 48.3866Z" fill="white"/>
<path d="M182.609 17.2599C185.056 17.2599 186.854 15.9172 186.854 13.7948C186.854 11.5642 184.883 10.9578 183.042 10.4164C181.158 9.8317 180.465 9.57182 180.465 8.70556C180.465 7.86095 181.331 7.38451 182.436 7.38451C183.41 7.38451 184.536 7.75267 185.619 8.42402L186.572 6.8431C185.359 6.04181 183.887 5.54371 182.436 5.54371C180.054 5.54371 178.343 6.88641 178.364 8.94378C178.364 10.7629 179.642 11.4992 182.219 12.2139C183.605 12.6037 184.753 12.9286 184.753 13.9681C184.753 14.8343 183.887 15.4191 182.631 15.4191C181.31 15.4191 180.032 14.921 178.841 14.0547L177.823 15.5923C179.166 16.6752 180.963 17.2599 182.609 17.2599ZM194.586 14.9859C194.348 15.2242 193.915 15.3974 193.438 15.3974C192.81 15.3974 192.291 14.8343 192.291 14.0547V7.62273H194.933V5.80359H192.291V2.72836H190.19V5.80359H188.501V7.62273H190.19V14.2063C190.19 16.0038 191.403 17.2599 193.135 17.2599C193.936 17.2599 194.759 16.9567 195.366 16.4586L194.586 14.9859Z" fill="white"/>
</svg>
