<svg width="31" height="31" viewBox="0 0 31 31" fill="none" xmlns="http://www.w3.org/2000/svg">
<path d="M15.9662 19.696C18.2072 18.6196 18.8364 16.7542 20.5234 16.9373C21.8443 17.0762 23.1589 18.3987 23.2591 19.696C23.4594 22.1958 19.2308 25.3207 15.2494 25.1723C10.7297 25.0082 7.26474 20.6492 7.76554 19.696C8.25695 18.7775 12.1131 21.5425 15.9662 19.696Z" fill="#22223B"/>
<path d="M30.9871 15.1002C30.9871 23.7299 24.051 30.7244 15.4935 30.7244C6.93609 30.7244 0 23.7299 0 15.1002C0 7.94152 4.77639 1.90331 11.3024 0.0536589V4.90505C7.33673 6.56848 4.55729 10.5014 4.55729 15.0971C4.55729 21.1921 9.45262 26.1256 15.4935 26.1256C21.5344 26.1256 26.4298 21.1889 26.4298 15.0971C26.4298 10.4382 23.5595 6.44854 19.5031 4.83877V0C26.1199 1.78337 30.9871 7.86576 30.9871 15.1002Z" fill="#22223B"/>
<path d="M23.2591 19.696C23.4594 22.1958 19.2308 25.3207 15.2494 25.1723C10.7297 25.0082 7.26474 20.6492 7.76554 19.696C8.25695 18.7775 12.1131 21.5425 15.9693 19.696C18.2104 18.6196 18.8395 16.7542 20.5266 16.9373C21.8474 17.0762 23.1589 18.3987 23.2591 19.696Z" fill="#22223B"/>
<path d="M23.2591 19.696C23.4594 22.1958 19.2308 25.3207 15.2494 25.1723C10.7297 25.0082 7.26474 20.6492 7.76554 19.696C8.25695 18.7775 12.1131 21.5425 15.9693 19.696C18.2104 18.6196 18.8395 16.7542 20.5266 16.9373C21.8474 17.0762 23.1589 18.3987 23.2591 19.696Z" fill="#22223B"/>
</svg>
