<svg width="757" height="209" viewBox="0 0 757 209" fill="none" xmlns="http://www.w3.org/2000/svg">
<g clip-path="url(#clip0_1050_169)">
<path d="M15.2408 40.1058L27.5738 25.8175V106.408L21.1566 97.76H90.2414V120.32H21.0313L27.5738 111.497V195.07L15.2408 180.481H105.282V203.042H0V17.5454H105.282V40.1058H15.2408Z" fill="black"/>
<path d="M142.879 203.044V70.1882H170.453V203.044H142.879ZM238.134 203.044V125.461C238.242 119.568 237.204 113.711 235.076 108.215C233.114 103.328 229.588 99.2286 225.049 96.5587C219.312 93.5143 212.862 92.0684 206.374 92.3725C199.822 92.2899 193.375 94.0253 187.749 97.3859C182.239 100.689 177.686 105.372 174.539 110.972C171.223 116.93 169.537 123.657 169.651 130.474L157.919 124.709C157.762 114.499 160.453 104.447 165.69 95.6814C170.751 87.2309 177.898 80.2221 186.446 75.3269C195.113 70.3202 204.963 67.7237 214.972 67.8068C224.468 67.5378 233.883 69.6309 242.37 73.8981C249.785 77.7716 255.85 83.8024 259.767 91.1944C263.95 99.4737 265.993 108.669 265.708 117.941V203.044H238.134Z" fill="black"/>
<path d="M363.474 208.256C350.67 208.466 338.015 205.485 326.651 199.583C315.938 193.929 307.06 185.338 301.057 174.817C294.631 163.284 291.411 150.24 291.732 137.041C291.36 123.892 294.584 110.891 301.057 99.4404C307.111 89.0921 315.989 80.6837 326.651 75.2005C338.06 69.4544 350.702 66.5885 363.474 66.8532C372.877 66.6948 382.226 68.2842 391.048 71.5407C398.587 74.3931 405.519 78.6457 411.478 84.0743C416.778 88.8561 421.102 94.619 424.212 101.045C427.034 106.765 428.549 113.041 428.649 119.419V120.321H401.075C401.078 119.825 401.036 119.33 400.95 118.842C400.95 118.291 400.774 117.739 400.699 117.238C400.054 112.263 398.001 107.575 394.783 103.727C391.303 99.624 386.894 96.4101 381.924 94.3518C375.492 91.8268 368.606 90.6657 361.702 90.9418C354.797 91.218 348.026 92.9255 341.816 95.956C335.102 99.3919 329.554 104.739 325.874 111.322C321.67 119.224 319.629 128.097 319.958 137.041C319.673 146.037 321.71 154.955 325.874 162.935C329.464 169.628 334.914 175.138 341.566 178.803C348.201 182.435 355.659 184.3 363.224 184.217C370.366 184.483 377.477 183.138 384.029 180.282C389.035 178.023 393.283 174.367 396.262 169.753C398.993 165.429 400.644 160.511 401.075 155.415H428.649C428.587 161.879 427.143 168.256 424.412 174.115C421.422 180.618 417.16 186.456 411.879 191.286C405.961 196.695 399.036 200.885 391.499 203.619C382.517 206.855 373.02 208.426 363.474 208.256Z" fill="black"/>
<path d="M468.751 147.895V125.335H567.816L564.006 131.601V130.122C564.067 123.661 562.544 117.284 559.569 111.548C556.613 105.789 552.062 101.003 546.459 97.7609C539.672 94.1382 532.036 92.4067 524.35 92.7475C516.336 92.5788 508.413 94.4689 501.339 98.2372C494.779 101.849 489.414 107.293 485.897 113.904C482.038 121.405 480.14 129.762 480.382 138.194C480.158 146.771 481.98 155.278 485.697 163.01C489.085 169.749 494.421 175.312 501.013 178.978C508.39 182.864 516.642 184.789 524.977 184.568C530.668 184.659 536.348 184.011 541.872 182.638C546.069 181.614 550.056 179.867 553.653 177.474C556.442 175.623 558.836 173.238 560.697 170.455C562.2 168.201 563.153 165.625 563.48 162.935H590.828C590.233 168.591 588.392 174.044 585.438 178.903C582.072 184.481 577.643 189.344 572.404 193.216C566.199 197.769 559.253 201.212 551.874 203.394C542.796 206.075 533.362 207.352 523.899 207.179C511.075 207.469 498.39 204.475 487.05 198.48C476.709 192.902 468.145 184.528 462.334 174.316C456.299 163.474 453.246 151.227 453.486 138.821C453.209 126.3 456.309 113.935 462.46 103.025C468.402 92.8188 477.086 84.4821 487.527 78.9606C498.808 73.0593 511.395 70.0938 524.124 70.3376C536.817 70.0066 549.374 73.0055 560.547 79.0358C570.586 84.6121 578.829 92.9333 584.31 103.025C590.02 113.827 592.892 125.903 592.658 138.119C592.658 139.698 592.658 141.528 592.658 143.584C592.647 145.003 592.521 146.42 592.282 147.82L468.751 147.895Z" fill="black"/>
<path d="M663.85 69.8609C660.961 69.8743 658.081 69.5291 655.277 68.8331C652.774 68.2287 650.387 67.2212 648.208 65.8501C646.261 64.6244 644.63 62.9587 643.445 60.9871C642.285 58.9321 641.696 56.6037 641.741 54.2441V52.9155H652.82V53.8932C652.79 55.0059 653.082 56.1038 653.66 57.0552C654.238 58.0066 655.078 58.7712 656.079 59.2575C658.811 60.5975 661.837 61.2269 664.877 61.0874C666.896 61.1114 668.91 60.8755 670.869 60.3855C672.453 60.0503 673.932 59.3364 675.18 58.305C675.7 57.867 676.115 57.3171 676.393 56.6964C676.67 56.0756 676.804 55.4001 676.784 54.7204C676.819 53.6281 676.505 52.5532 675.888 51.6516C675.27 50.7501 674.381 50.0689 673.35 49.707C670.006 48.415 666.524 47.5149 662.972 47.0248C660.494 46.587 658.041 46.0096 655.628 45.2952C653.38 44.6282 651.231 43.6673 649.236 42.4375C647.436 41.3098 645.912 39.7939 644.774 38.0006C643.628 36.079 643.054 33.8702 643.119 31.6336C643.035 28.6238 644.061 25.6882 646.002 23.3866C648.105 21.0599 650.786 19.3304 653.773 18.3731C657.253 17.1645 660.918 16.5708 664.602 16.6184C668.214 16.5843 671.801 17.2218 675.18 18.4985C678.213 19.582 680.916 21.4297 683.026 23.8628C685.035 26.2794 686.095 29.3446 686.009 32.4859V33.3632H674.929V32.5862C674.957 31.826 674.832 31.0681 674.56 30.3575C674.289 29.6469 673.878 28.9982 673.35 28.4501C672.199 27.2993 670.789 26.4399 669.239 25.9434C667.509 25.4138 665.709 25.1517 663.9 25.1663C662.155 25.1637 660.416 25.3486 658.711 25.7178C657.136 26.0148 655.647 26.6568 654.349 27.5978C653.797 28.019 653.354 28.5667 653.057 29.1949C652.76 29.823 652.619 30.5133 652.645 31.2075C652.581 31.9363 652.694 32.6697 652.973 33.346C653.252 34.0222 653.69 34.6213 654.249 35.0929C655.664 36.1714 657.285 36.9479 659.012 37.374C661.361 38.0502 663.746 38.5941 666.156 39.0033C668.616 39.4495 671.051 40.0269 673.45 40.733C675.685 41.3783 677.832 42.296 679.842 43.4653C681.704 44.4642 683.302 45.8903 684.505 47.6264C685.693 49.6062 686.285 51.8864 686.21 54.194C686.285 56.629 685.649 59.0331 684.38 61.1125C683.125 63.107 681.404 64.7671 679.366 65.9504C677.155 67.2819 674.742 68.247 672.222 68.8081C669.481 69.4806 666.672 69.8339 663.85 69.8609Z" fill="black"/>
<path d="M721.936 69.8869C720.292 69.8854 718.654 69.7089 717.047 69.3605C715.447 69.0454 713.929 68.4055 712.586 67.4805C711.185 66.4941 710.084 65.1412 709.402 63.5701C708.52 61.4527 708.11 59.169 708.199 56.8772V25.8441H695.891V17.2211H702.032C703.179 17.2359 704.326 17.1857 705.467 17.0707C706.16 17.0186 706.81 16.7156 707.296 16.2184C707.766 15.6052 708.029 14.8595 708.048 14.0877C708.048 13.1101 708.199 11.7564 708.199 10.077V0H719.429V17.2211H734.193V25.8441H718.201V52.6408C718.113 54.7203 718.428 56.7971 719.128 58.7572C719.504 59.5392 720.121 60.1801 720.888 60.5861C721.655 60.9921 722.531 61.1418 723.389 61.0132C724.297 61.009 725.203 60.9252 726.097 60.7625C726.765 60.6444 727.42 60.4596 728.052 60.2111V69.1349C727.273 69.3898 726.477 69.5908 725.671 69.7365C724.432 69.8972 723.183 69.9475 721.936 69.8869Z" fill="black"/>
<path d="M750.559 70.6385C749.708 70.6598 748.862 70.5062 748.073 70.1871C747.284 69.868 746.569 69.3903 745.972 68.7836C745.36 68.1945 744.877 67.4848 744.554 66.6996C744.23 65.9143 744.073 65.0705 744.092 64.2214C744.077 63.3729 744.237 62.5303 744.56 61.7457C744.883 60.9611 745.364 60.251 745.972 59.6591C747.193 58.4709 748.83 57.8061 750.534 57.8061C752.238 57.8061 753.875 58.4709 755.096 59.6591C755.708 60.2498 756.192 60.9591 756.52 61.7436C756.848 62.5281 757.011 63.3713 757.002 64.2214C757.008 65.0681 756.846 65.9076 756.524 66.6908C756.203 67.4741 755.728 68.1853 755.128 68.7829C754.528 69.3804 753.815 69.8523 753.031 70.171C752.246 70.4896 751.406 70.6486 750.559 70.6385Z" fill="black"/>
</g>
<defs>
<clipPath id="clip0_1050_169">
<rect width="757" height="208.257" fill="white"/>
</clipPath>
</defs>
</svg>
