<svg width="556" height="87" viewBox="0 0 556 87" fill="none" xmlns="http://www.w3.org/2000/svg">
<path d="M11.9437 16.1397L21.1441 6.71069V40.598L16.5725 34.9977H47.2596V50.427H16.5725L21.1441 44.8839V78.9997L11.9437 69.5707H53.6027V85H0.628875V0.710425H53.6027V16.1397H11.9437ZM108.988 85V60.3132C108.988 58.9798 108.988 57.7226 108.988 56.5416C108.988 55.3224 108.988 54.2557 108.988 53.3414C108.988 51.0556 108.722 48.9222 108.188 46.9411C107.693 44.922 106.702 43.3029 105.217 42.0837C103.769 40.8265 101.559 40.1979 98.5878 40.1979C96.0353 40.1979 93.8828 40.7694 92.1304 41.9123C90.3779 43.0171 89.0636 44.5981 88.1873 46.6554C87.3111 48.7126 86.873 51.1318 86.873 53.9129L82.1871 49.8555C82.1871 44.4458 83.3109 39.7408 85.5587 35.7406C87.8445 31.7404 90.9303 28.6355 94.8162 26.4259C98.7021 24.2163 103.064 23.1114 107.903 23.1114C112.969 23.1114 117.065 24.1401 120.189 26.1973C123.351 28.2545 125.656 31.1118 127.103 34.7691C128.589 38.4264 129.332 42.6362 129.332 47.3983C129.332 49.4174 129.332 51.7032 129.332 54.2557C129.332 56.8082 129.332 59.456 129.332 62.199V85H108.988ZM66.5292 85V24.3115H86.873V85H66.5292ZM172.565 86.4286C165.594 86.4286 159.536 85.0571 154.393 82.3142C149.288 79.5712 145.345 75.7996 142.564 70.9994C139.783 66.1991 138.392 60.6751 138.392 54.4272C138.392 48.1412 139.783 42.6552 142.564 37.9693C145.345 33.2833 149.288 29.6451 154.393 27.0545C159.536 24.4258 165.594 23.1114 172.565 23.1114C177.747 23.1114 182.318 23.8543 186.28 25.3401C190.242 26.8259 193.538 28.807 196.166 31.2833C198.833 33.7215 200.852 36.4073 202.224 39.3408C203.595 42.2361 204.281 45.1125 204.281 47.9697C204.281 48.0459 204.281 48.1412 204.281 48.2555C204.281 48.3317 204.281 48.4078 204.281 48.484H184.109C184.109 48.2555 184.09 48.0459 184.052 47.8554C184.052 47.665 184.013 47.4554 183.937 47.2268C183.632 45.9315 183.061 44.6743 182.223 43.4552C181.385 42.198 180.166 41.1694 178.566 40.3694C177.004 39.5313 174.946 39.1122 172.394 39.1122C169.765 39.1122 167.441 39.7027 165.422 40.8837C163.441 42.0647 161.879 43.7981 160.736 46.0839C159.631 48.3317 159.079 51.1127 159.079 54.4272C159.079 57.6273 159.631 60.4465 160.736 62.8847C161.879 65.2848 163.441 67.1516 165.422 68.485C167.441 69.7803 169.765 70.4279 172.394 70.4279C175.023 70.4279 177.156 70.0279 178.794 69.2278C180.47 68.3897 181.728 67.2849 182.566 65.9134C183.404 64.5038 183.899 62.9418 184.052 61.2275H204.281C204.281 64.1229 203.595 67.0563 202.224 70.0279C200.89 72.9614 198.89 75.6662 196.224 78.1425C193.595 80.6188 190.299 82.6189 186.337 84.1428C182.375 85.6667 177.785 86.4286 172.565 86.4286ZM221.969 60.4846V47.7412H259.971L258.257 50.7127C258.257 50.4079 258.257 50.1032 258.257 49.7984C258.257 49.4555 258.257 49.1507 258.257 48.8841C258.257 47.1697 257.819 45.4744 256.942 43.7981C256.066 42.0837 254.676 40.6742 252.771 39.5693C250.866 38.4264 248.371 37.855 245.285 37.855C242.237 37.855 239.646 38.5026 237.513 39.7979C235.418 41.0551 233.818 42.9219 232.713 45.3982C231.646 47.8364 231.113 50.7889 231.113 54.2557C231.113 57.8749 231.627 60.9799 232.656 63.5704C233.722 66.1229 235.341 68.0849 237.513 69.4564C239.684 70.7898 242.466 71.4565 245.856 71.4565C247.952 71.4565 249.742 71.2851 251.228 70.9422C252.752 70.5993 253.971 70.1612 254.885 69.6279C255.838 69.0564 256.542 68.4469 257 67.7992C257.495 67.1135 257.8 66.4468 257.914 65.7991H278.029C277.801 68.4278 276.886 70.9803 275.286 73.4566C273.686 75.8948 271.476 78.1044 268.657 80.0855C265.876 82.0284 262.486 83.5714 258.485 84.7143C254.523 85.8572 250.028 86.4286 244.999 86.4286C238.103 86.4286 232.103 85.0952 226.998 82.4285C221.893 79.7236 217.931 75.9901 215.112 71.2279C212.331 66.4658 210.94 60.9799 210.94 54.77C210.94 48.4459 212.369 42.9219 215.226 38.1979C218.083 33.4357 222.065 29.7403 227.17 27.1116C232.313 24.4448 238.256 23.1114 244.999 23.1114C251.971 23.1114 257.99 24.4639 263.057 27.1688C268.124 29.8356 272.029 33.6072 274.772 38.4836C277.515 43.36 278.886 49.0936 278.886 55.6844C278.886 56.713 278.867 57.6464 278.829 58.4845C278.791 59.3226 278.734 59.9893 278.658 60.4846H221.969ZM299.498 84.8286C301.708 84.8286 303.555 84.0857 305.041 82.5999C306.527 81.1141 307.27 79.2664 307.27 77.0568C307.308 75.7996 307.06 74.5995 306.527 73.4566C306.032 72.3137 305.193 71.0756 304.012 69.7422C302.831 68.3707 301.25 66.7896 299.269 64.9991C296.869 62.8657 294.907 60.9799 293.383 59.3417C291.898 57.7035 290.812 56.1034 290.126 54.5415C289.478 52.9414 289.212 51.208 289.326 49.3412C289.517 46.5601 290.507 43.9695 292.298 41.5694C294.088 39.1312 296.564 37.1692 299.726 35.6835C302.889 34.1977 306.584 33.4548 310.813 33.4548C314.432 33.4548 317.423 33.9119 319.785 34.8263C322.185 35.7025 323.994 36.8645 325.213 38.3121C326.432 39.7598 327.061 41.2647 327.099 42.8266C327.137 44.3886 326.775 45.6458 326.013 46.5982C325.251 47.5126 324.242 47.9697 322.985 47.9697C321.537 47.9697 320.299 47.4364 319.27 46.3697C318.28 45.3029 317.442 43.3981 316.756 40.6551C316.07 38.4836 315.156 36.9407 314.013 36.0263C312.908 35.0739 311.575 34.5977 310.013 34.5977C307.613 34.5977 305.632 35.3787 304.07 36.9407C302.546 38.5026 301.784 40.5789 301.784 43.1695C301.746 44.6172 301.974 46.0077 302.469 47.3411C303.003 48.6745 303.993 50.1413 305.441 51.7413C306.889 53.3033 308.984 55.2844 311.727 57.6845C313.975 59.6274 315.765 61.3608 317.099 62.8847C318.432 64.4086 319.346 65.8944 319.842 67.342C320.375 68.7897 320.527 70.3898 320.299 72.1423C319.994 74.8472 318.889 77.2473 316.984 79.3426C315.08 81.3998 312.565 83.038 309.441 84.2571C306.355 85.4381 302.793 86.0286 298.755 86.0286C295.06 86.0286 291.936 85.4953 289.383 84.4285C286.869 83.3618 284.983 81.9903 283.726 80.3141C282.469 78.6378 281.84 76.8663 281.84 74.9995C281.84 73.6281 282.164 72.4851 282.811 71.5708C283.459 70.6184 284.431 70.1422 285.726 70.1422C287.288 70.1422 288.526 70.7136 289.44 71.8565C290.393 72.9995 291.231 74.9233 291.955 77.6282C292.869 80.2569 293.917 82.1237 295.098 83.2285C296.317 84.2952 297.784 84.8286 299.498 84.8286ZM338.115 36.6549L333.715 35.9692C333.486 35.9311 333.334 35.8549 333.257 35.7406C333.181 35.6263 333.143 35.512 333.143 35.3977C333.143 35.2072 333.2 35.0739 333.315 34.9977C333.467 34.8834 333.638 34.8263 333.829 34.8263H339.829C340.172 34.8263 340.439 34.7882 340.629 34.712C340.858 34.6358 341.105 34.4834 341.372 34.2548L354.916 24.1972C355.068 24.0829 355.22 23.9877 355.373 23.9115C355.563 23.7972 355.773 23.7401 356.001 23.7401C356.154 23.7401 356.268 23.7972 356.344 23.9115C356.459 24.0258 356.516 24.1782 356.516 24.3686C356.516 24.4829 356.497 24.6544 356.459 24.883C356.42 25.0734 356.344 25.3401 356.23 25.683L343.087 72.828C342.172 76.0282 341.925 78.1616 342.344 79.2283C342.801 80.295 343.582 80.8284 344.687 80.8284C345.944 80.8284 347.239 80.3522 348.572 79.3997C349.906 78.4092 351.373 76.8663 352.973 74.771C353.201 74.4281 353.373 74.2186 353.487 74.1424C353.601 74.0281 353.716 73.99 353.83 74.0281C353.982 74.0281 354.058 74.1424 354.058 74.3709C354.058 74.5995 353.944 74.9043 353.716 75.2853C352.877 76.8091 351.83 78.2378 350.573 79.5712C349.353 80.8665 347.982 82.0094 346.458 82.9999C344.934 83.9523 343.258 84.6952 341.429 85.2286C339.639 85.7619 337.715 86.0286 335.658 86.0286C333.41 86.0286 331.676 85.6476 330.457 84.8857C329.276 84.0857 328.591 82.8475 328.4 81.1713C328.21 79.4569 328.495 77.2663 329.257 74.5995L339.143 39.5122C339.41 38.5217 339.467 37.8169 339.315 37.3978C339.163 36.9788 338.763 36.7311 338.115 36.6549ZM350.687 35.9692L351.315 34.8263H363.145C363.602 34.8263 363.83 34.9977 363.83 35.3406C363.83 35.5692 363.735 35.7406 363.545 35.8549C363.354 35.9311 363.087 35.9692 362.745 35.9692H350.687ZM413.897 74.2567C414.049 74.2947 414.106 74.39 414.068 74.5424C414.03 74.6948 413.935 74.8853 413.783 75.1138C411.687 78.4283 409.135 81.076 406.125 83.0571C403.115 85.0381 400.087 86.0286 397.039 86.0286C395.02 86.0286 393.496 85.5905 392.467 84.7143C391.439 83.7999 390.924 82.4475 390.924 80.6569C390.924 79.3997 391.153 77.914 391.61 76.1996C392.067 74.4471 392.601 72.6756 393.21 70.8851C393.82 69.0564 394.391 67.3611 394.925 65.7991C395.496 64.2371 395.877 63.0371 396.068 62.199L396.41 62.3704C394.353 66.7896 392.144 70.5231 389.782 73.5709C387.42 76.6187 385.038 79.0569 382.638 80.8855C380.238 82.7142 377.895 84.0285 375.609 84.8286C373.362 85.6286 371.285 86.0286 369.381 86.0286C367.019 86.0286 365.247 85.4762 364.066 84.3714C362.923 83.2666 362.314 81.6856 362.237 79.6283C362.161 77.5711 362.561 75.1329 363.437 72.3137L371.152 47.284C372.181 43.9315 372.543 41.7028 372.238 40.598C371.971 39.4932 371.362 38.9407 370.409 38.9407C369.647 38.9407 368.771 39.2836 367.781 39.9694C366.828 40.6551 365.647 41.8933 364.237 43.6838C363.971 43.9886 363.78 44.1981 363.666 44.3124C363.59 44.3886 363.495 44.4077 363.38 44.3696C363.266 44.3315 363.19 44.2172 363.152 44.0267C363.152 43.7981 363.266 43.4933 363.495 43.1124C365.018 40.2932 367.114 38.0455 369.781 36.3692C372.447 34.6548 375.686 33.7977 379.495 33.7977C381.743 33.7977 383.4 34.1977 384.467 34.9977C385.572 35.7977 386.162 37.0359 386.239 38.7122C386.315 40.3503 385.953 42.4457 385.153 44.9982L377.438 69.8564C376.295 73.4757 375.914 75.9329 376.295 77.2282C376.714 78.5235 377.686 79.1712 379.21 79.1712C380.276 79.1712 381.591 78.714 383.153 77.7997C384.715 76.8853 386.391 75.4377 388.181 73.4566C390.01 71.4756 391.82 68.904 393.61 65.742C395.401 62.5799 397.058 58.7512 398.582 54.2557C399.306 52.0842 399.877 50.1794 400.296 48.5412C400.715 46.903 401.001 45.5125 401.153 44.3696C401.344 43.2267 401.439 42.3123 401.439 41.6266C401.439 40.8646 401.287 40.2741 400.982 39.8551C400.677 39.3979 400.525 38.8455 400.525 38.1979C400.525 36.9026 401.534 35.8549 403.554 35.0549C405.611 34.2167 408.449 33.7977 412.068 33.7977C414.392 33.7977 415.764 34.2739 416.183 35.2263C416.602 36.1406 416.488 37.6454 415.84 39.7408L405.782 71.5708C404.754 74.7329 404.335 76.8853 404.525 78.0283C404.716 79.1712 405.287 79.7426 406.239 79.7426C407.039 79.7426 407.954 79.3997 408.982 78.714C410.011 78.0283 411.363 76.7139 413.04 74.771C413.23 74.5805 413.383 74.4471 413.497 74.3709C413.649 74.2567 413.783 74.2186 413.897 74.2567ZM461.916 40.3122L457.916 40.4837C458.259 38.9979 458.183 37.7026 457.687 36.5978C457.23 35.493 455.973 34.9406 453.916 34.9406C451.973 34.9406 450.011 35.6835 448.03 37.1692C446.087 38.655 444.22 40.6742 442.429 43.2267C440.639 45.7411 439.02 48.5793 437.572 51.7413C436.124 54.8653 434.943 58.1035 434.029 61.4561C433.115 64.7705 432.543 67.9897 432.315 71.1136C431.896 75.0376 432.105 77.7806 432.943 79.3426C433.781 80.8665 434.924 81.6284 436.372 81.6284C437.324 81.6284 438.505 81.1141 439.915 80.0855C441.363 79.0188 442.887 77.4758 444.487 75.4567C446.087 73.4376 447.63 70.9613 449.115 68.0278C450.639 65.0943 451.935 61.7418 453.001 57.9702L464.945 15.5111C466.278 10.7109 468.373 7.22501 471.231 5.05348C474.088 2.84386 477.841 1.73904 482.488 1.73904C485.155 1.73904 487.155 2.2343 488.489 3.22482C489.822 4.17725 490.489 5.33921 490.489 6.71069C490.489 7.8917 490.089 8.88222 489.289 9.68226C488.489 10.4442 487.346 10.8252 485.86 10.8252C484.793 10.8252 483.688 10.5966 482.546 10.1394C481.441 9.64416 480.336 9.07271 479.231 8.42506C478.126 7.77741 477.079 7.225 476.088 6.76784C475.098 6.31068 474.202 6.0821 473.402 6.0821C472.336 6.0821 471.364 6.55831 470.488 7.51073C469.612 8.42506 469.174 9.62512 469.174 11.1109C469.135 11.9871 469.383 12.8443 469.916 13.6824C470.488 14.4825 471.136 15.3397 471.859 16.254C472.583 17.1683 473.231 18.235 473.802 19.4541C474.412 20.6351 474.812 22.0447 475.002 23.6829C475.193 25.283 474.983 27.2259 474.374 29.5117L462.145 72.9423C461.307 75.952 460.964 78.0283 461.116 79.1712C461.268 80.276 461.897 80.8284 463.002 80.8284C463.802 80.8284 464.659 80.5046 465.573 79.8569C466.526 79.1712 467.707 77.933 469.116 76.1425C469.383 75.7996 469.555 75.59 469.631 75.5139C469.745 75.4377 469.878 75.3996 470.031 75.3996C470.145 75.4377 470.202 75.571 470.202 75.7996C470.202 75.9901 470.107 76.2948 469.916 76.7139C468.85 78.5807 467.554 80.2188 466.031 81.6284C464.507 82.9999 462.773 84.0857 460.83 84.8857C458.925 85.6476 456.811 86.0286 454.487 86.0286C452.049 86.0286 450.258 85.5143 449.115 84.4857C448.011 83.4571 447.458 82.0284 447.458 80.1998C447.458 79.2855 447.553 78.2187 447.744 76.9996C447.934 75.7424 448.277 74.1614 448.773 72.2566C449.306 70.3136 450.011 67.8754 450.887 64.9419L451.916 65.0562C450.011 69.5136 447.839 73.3042 445.401 76.4282C443.001 79.5521 440.448 81.9332 437.744 83.5714C435.039 85.2095 432.258 86.0286 429.4 86.0286C427.038 86.0286 424.981 85.4762 423.229 84.3714C421.476 83.2285 420.162 81.5141 419.286 79.2283C418.447 76.9044 418.162 73.9709 418.428 70.4279C418.733 66.1229 419.857 61.818 421.8 57.513C423.743 53.17 426.295 49.2079 429.457 45.6268C432.619 42.0457 436.182 39.1693 440.144 36.9978C444.144 34.8263 448.296 33.7405 452.601 33.7405C455.001 33.7405 456.887 34.0262 458.259 34.5977C459.668 35.1691 460.659 35.9501 461.23 36.9407C461.802 37.9312 462.03 39.055 461.916 40.3122ZM491.215 72.4851C490.148 75.7996 489.748 78.0283 490.015 79.1712C490.319 80.276 490.948 80.8284 491.9 80.8284C492.701 80.8284 493.577 80.5046 494.529 79.8569C495.52 79.1712 496.72 77.933 498.129 76.1425C498.358 75.7996 498.529 75.59 498.644 75.5139C498.758 75.3996 498.872 75.3615 498.987 75.3996C499.139 75.4377 499.196 75.571 499.158 75.7996C499.158 75.9901 499.063 76.2948 498.872 76.7139C497.31 79.495 495.196 81.7427 492.529 83.4571C489.862 85.1714 486.605 86.0286 482.757 86.0286C480.548 86.0286 478.89 85.6286 477.786 84.8286C476.719 84.0285 476.147 82.7904 476.071 81.1141C475.995 79.4378 476.357 77.3235 477.157 74.771L485.729 48.2555C486.757 45.1315 487.176 42.979 486.986 41.798C486.834 40.617 486.262 40.0265 485.272 40.0265C484.51 40.0265 483.614 40.3694 482.586 41.0551C481.557 41.7028 480.186 43.0171 478.471 44.9982C478.319 45.1887 478.167 45.341 478.014 45.4553C477.9 45.5315 477.767 45.5506 477.614 45.5125C477.5 45.4744 477.462 45.3982 477.5 45.2839C477.538 45.1315 477.614 44.941 477.728 44.7124C479.862 41.3599 482.338 38.7122 485.157 36.7692C488.015 34.7882 490.986 33.7977 494.072 33.7977C496.015 33.7977 497.558 34.2358 498.701 35.112C499.844 35.9501 500.529 37.2645 500.758 39.055C501.025 40.8075 500.701 43.0552 499.787 45.7982L491.215 72.4851ZM496.072 26.6545C494.205 26.6545 492.758 26.1783 491.729 25.2258C490.739 24.2353 490.243 22.9972 490.243 21.5114C490.243 19.9875 490.681 18.4065 491.558 16.7683C492.472 15.1301 493.691 13.7396 495.215 12.5967C496.739 11.4157 498.453 10.8252 500.358 10.8252C502.606 10.8252 504.206 11.3204 505.158 12.311C506.149 13.2634 506.644 14.4634 506.644 15.9111C506.644 17.6636 506.206 19.3779 505.33 21.0542C504.453 22.6924 503.234 24.0448 501.672 25.1115C500.11 26.1402 498.244 26.6545 496.072 26.6545ZM536.083 33.5119C540.35 33.6262 543.988 34.6739 546.998 36.6549C550.007 38.636 552.198 41.4171 553.569 44.9982C554.979 48.5793 555.36 52.8271 554.712 57.7416C554.217 61.6656 553.15 65.342 551.512 68.7707C549.912 72.1994 547.798 75.2091 545.169 77.7997C542.578 80.3522 539.55 82.3713 536.083 83.8571C532.654 85.3048 528.863 86.0286 524.711 86.0286C520.711 86.0286 517.168 85.0952 514.082 83.2285C510.996 81.3617 508.691 78.6569 507.167 75.1138C505.643 71.5327 505.186 67.2468 505.796 62.2561C506.367 57.9892 507.51 54.1033 509.224 50.5984C510.977 47.0554 513.187 44.0076 515.853 41.4551C518.52 38.8646 521.568 36.8835 524.997 35.512C528.425 34.1024 532.121 33.4357 536.083 33.5119ZM524.711 84.4857C526.159 84.4857 527.625 83.7238 529.111 82.1999C530.597 80.6379 532.045 78.5616 533.454 75.971C534.864 73.3804 536.14 70.5041 537.283 67.342C538.464 64.1419 539.435 60.9037 540.197 57.6273C540.997 54.3129 541.512 51.1889 541.74 48.2555C542.159 45.1315 542.178 42.6171 541.797 40.7123C541.455 38.8074 540.807 37.4169 539.854 36.5406C538.94 35.6263 537.816 35.131 536.483 35.0549C534.997 34.9787 533.473 35.7025 531.911 37.2264C530.387 38.7503 528.883 40.8075 527.397 43.3981C525.949 45.9887 524.597 48.8841 523.339 52.0842C522.12 55.2844 521.111 58.5797 520.311 61.9704C519.511 65.361 518.977 68.5992 518.711 71.6851C518.292 74.9614 518.292 77.533 518.711 79.3997C519.168 81.2665 519.93 82.5808 520.996 83.3428C522.063 84.1047 523.301 84.4857 524.711 84.4857Z" fill="black"/>
</svg>
