<svg width="118" height="51" viewBox="0 0 118 51" fill="none" xmlns="http://www.w3.org/2000/svg">
<path d="M50.9009 24.5806H56.0182C56.8918 24.5806 57.5233 24.3976 57.9129 24.0317C58.3024 23.6539 58.568 22.9515 58.7097 21.9245C58.7451 21.7593 58.7982 21.6412 58.8691 21.5704C58.9517 21.4996 59.0461 21.4583 59.1524 21.4464C59.4003 21.4346 59.5655 21.5822 59.6482 21.8891L61.2772 27.6439C61.3244 27.8091 61.3244 27.9449 61.2772 28.0511C61.2418 28.1456 61.1592 28.2164 61.0293 28.2636C60.9113 28.299 60.7991 28.3049 60.6929 28.2813C60.5866 28.2459 60.4863 28.1633 60.3919 28.0334C59.9433 27.3606 59.536 26.8471 59.1701 26.4929C58.8159 26.127 58.4323 25.8791 58.0191 25.7492C57.606 25.6076 57.1043 25.5368 56.514 25.5368H50.9009V24.5806ZM44.6504 13.3721C44.6504 13.2422 44.6976 13.1419 44.792 13.0711C44.8865 12.9884 45.0281 12.9471 45.217 12.9471H59.6305C59.961 12.9471 60.2443 12.8999 60.4804 12.8055C60.7283 12.711 60.9467 12.6166 61.1355 12.5222C61.3362 12.4159 61.5133 12.3628 61.6668 12.3628C61.8438 12.3628 61.9796 12.4218 62.074 12.5399C62.1684 12.6461 62.257 12.8409 62.3396 13.1242L63.827 18.8789C63.886 19.0442 63.886 19.18 63.827 19.2862C63.7798 19.3924 63.6912 19.4692 63.5614 19.5164C63.4197 19.5636 63.284 19.5577 63.1541 19.4987C63.0361 19.4397 62.9357 19.3334 62.8531 19.18C62.2157 18.0821 61.6372 17.1909 61.1178 16.5062C60.5984 15.8215 60.1026 15.2903 59.6305 14.9126C59.1701 14.5348 58.6979 14.2751 58.2139 14.1335C57.7417 13.9918 57.2164 13.921 56.638 13.921H52.2998V35.5589C52.2998 35.9602 52.4119 36.2612 52.6362 36.4619C52.8723 36.6626 53.2205 36.7629 53.6809 36.7629H56.9921C57.7358 36.7629 58.4264 36.5977 59.0638 36.2672C59.7013 35.9366 60.3623 35.3051 61.047 34.3725C61.7435 33.4399 62.5403 32.0647 63.4374 30.2468C63.5201 30.0933 63.6145 29.9871 63.7208 29.9281C63.827 29.869 63.945 29.8572 64.0749 29.8927C64.2284 29.9163 64.3346 29.9871 64.3936 30.1051C64.4526 30.2232 64.4585 30.3766 64.4113 30.5655L62.6938 37.5066C62.6229 37.7899 62.5344 37.9906 62.4281 38.1087C62.3337 38.2267 62.1921 38.2857 62.0032 38.2857C61.8497 38.2857 61.6727 38.2385 61.472 38.1441C61.2831 38.0615 61.0588 37.9729 60.7991 37.8785C60.5394 37.784 60.2148 37.7368 59.8252 37.7368H45.217C45.0281 37.7368 44.8865 37.7014 44.792 37.6306C44.6976 37.548 44.6504 37.4417 44.6504 37.3119C44.6504 37.0758 44.7979 36.9223 45.0931 36.8515L46.3503 36.6213C46.61 36.5623 46.7988 36.4796 46.9169 36.3734C47.0467 36.2553 47.1117 36.096 47.1117 35.8953V14.7886C47.1117 14.588 47.0467 14.4345 46.9169 14.3283C46.7988 14.2102 46.61 14.1217 46.3503 14.0627L45.0931 13.8325C44.7979 13.7616 44.6504 13.6082 44.6504 13.3721Z" fill="#F2F2F8"/>
<path d="M72.5051 21.9422V35.9484C72.5051 36.1963 72.5464 36.3852 72.629 36.515C72.7116 36.6331 72.8415 36.7157 73.0186 36.7629L73.8331 36.94C74.0692 37.0226 74.1872 37.1525 74.1872 37.3296C74.1872 37.6011 74.016 37.7368 73.6737 37.7368H66.6618C66.4965 37.7368 66.3725 37.7014 66.2899 37.6306C66.2073 37.5598 66.166 37.4653 66.166 37.3473C66.166 37.2528 66.1955 37.1761 66.2545 37.1171C66.3135 37.0463 66.4139 36.9931 66.5555 36.9577L67.4232 36.7629C67.6002 36.7157 67.7301 36.6331 67.8127 36.515C67.8953 36.3852 67.9367 36.1963 67.9367 35.9484V24.2441C67.9367 24.0671 67.9072 23.9431 67.8481 23.8723C67.7891 23.7897 67.6888 23.7365 67.5471 23.7129L66.5024 23.6952C66.3726 23.6716 66.2781 23.6303 66.2191 23.5713C66.1719 23.5123 66.1483 23.4355 66.1483 23.3411C66.1483 23.2348 66.1778 23.1522 66.2368 23.0932C66.3076 23.0224 66.4257 22.9574 66.5909 22.8984L70.876 21.5704C71.1357 21.4878 71.3364 21.4287 71.478 21.3933C71.6197 21.3579 71.7555 21.3402 71.8853 21.3402C72.086 21.3402 72.2394 21.3992 72.3457 21.5173C72.4519 21.6235 72.5051 21.7652 72.5051 21.9422ZM72.0624 25.643L71.602 25.1649L72.2749 24.5806C73.5734 23.4119 74.6948 22.5679 75.6392 22.0485C76.5954 21.5291 77.4925 21.2694 78.3306 21.2694C79.5701 21.2694 80.5322 21.6766 81.2169 22.4912C81.9133 23.2939 82.3501 24.4566 82.5272 25.9794L83.7135 35.8599C83.7371 36.1432 83.7903 36.3557 83.8729 36.4973C83.9673 36.639 84.109 36.7334 84.2979 36.7807L85.0593 36.9577C85.2009 36.9931 85.3013 37.0463 85.3603 37.1171C85.4193 37.1761 85.4488 37.2528 85.4488 37.3473C85.4488 37.4653 85.4075 37.5598 85.3249 37.6306C85.2422 37.7014 85.1124 37.7368 84.9353 37.7368H77.8348C77.4807 37.7368 77.3036 37.6011 77.3036 37.3296C77.3036 37.1525 77.4217 37.0226 77.6578 36.94L78.5254 36.7629C78.7261 36.7157 78.8736 36.6213 78.9681 36.4796C79.0743 36.3262 79.1097 36.1196 79.0743 35.8599L78.0119 26.5283C77.8939 25.5486 77.6519 24.8226 77.2859 24.3504C76.92 23.8664 76.3829 23.6244 75.6746 23.6244C75.2024 23.6244 74.7243 23.7484 74.2403 23.9962C73.7681 24.2323 73.2605 24.5865 72.7175 25.0587L72.0624 25.643Z" fill="#F2F2F8"/>
<path d="M101.13 25.7492C101.13 26.3985 100.923 26.9297 100.51 27.3429C100.109 27.756 99.5597 27.9626 98.8632 27.9626C98.1785 27.9626 97.6414 27.7619 97.2519 27.3606C96.8741 26.9592 96.6852 26.4044 96.6852 25.6961V24.7222C96.6852 23.9431 96.4669 23.3293 96.0301 22.8807C95.6051 22.4321 95.0149 22.2078 94.2594 22.2078C93.5393 22.2078 92.9019 22.4498 92.347 22.9338C91.804 23.406 91.3732 24.0848 91.0544 24.9701C90.7475 25.8437 90.5941 26.8884 90.5941 28.1043C90.5941 29.6271 90.8302 30.9138 91.3023 31.9644C91.7745 33.0032 92.4179 33.7941 93.2324 34.3371C94.0587 34.8683 94.9972 35.1339 96.0478 35.1339C97.0984 35.1339 98.0015 34.9096 98.757 34.461C99.5125 34.0125 100.061 33.3337 100.404 32.4247C100.51 32.3067 100.593 32.2241 100.652 32.1768C100.722 32.1296 100.793 32.106 100.864 32.106C100.97 32.106 101.041 32.1532 101.077 32.2477C101.124 32.3303 101.141 32.4366 101.13 32.5664C100.976 33.676 100.587 34.6499 99.961 35.488C99.3472 36.3144 98.5445 36.9577 97.5529 37.4181C96.5613 37.8785 95.4222 38.1087 94.1355 38.1087C92.6481 38.1087 91.3141 37.7899 90.1337 37.1525C88.965 36.515 88.0443 35.5943 87.3714 34.3902C86.6985 33.1861 86.3621 31.7342 86.3621 30.0343C86.3621 28.3699 86.7103 26.8825 87.4068 25.5722C88.1151 24.25 89.0949 23.2053 90.3462 22.438C91.5975 21.6589 93.0612 21.2694 94.7375 21.2694C96.0832 21.2694 97.2283 21.4701 98.1726 21.8714C99.1288 22.2728 99.8607 22.8158 100.368 23.5005C100.876 24.1733 101.13 24.9229 101.13 25.7492Z" fill="#F2F2F8"/>
<path d="M117.999 28.0157C117.999 28.3463 117.904 28.606 117.716 28.7948C117.527 28.9719 117.243 29.0604 116.866 29.0604H105.852V28.2813H112.882C113.259 28.2813 113.448 28.1043 113.448 27.7501C113.448 25.885 113.165 24.4979 112.598 23.589C112.032 22.6682 111.317 22.2078 110.456 22.2078C109.759 22.2078 109.151 22.4321 108.632 22.8807C108.112 23.3293 107.705 24.0021 107.41 24.8993C107.127 25.7846 106.985 26.8884 106.985 28.2105C106.985 30.5714 107.505 32.348 108.543 33.5403C109.594 34.7207 110.969 35.311 112.669 35.311C113.814 35.311 114.794 35.0336 115.608 34.4788C116.423 33.9121 116.954 33.133 117.202 32.1414C117.296 32.0116 117.379 31.923 117.45 31.8758C117.521 31.8286 117.586 31.805 117.645 31.805C117.751 31.805 117.828 31.8522 117.875 31.9467C117.922 32.0293 117.946 32.1414 117.946 32.2831C117.887 33.3691 117.538 34.3548 116.901 35.2401C116.275 36.1255 115.437 36.8279 114.387 37.3473C113.336 37.8667 112.138 38.1264 110.792 38.1264C109.234 38.1264 107.853 37.7899 106.649 37.1171C105.445 36.4442 104.5 35.4999 103.816 34.284C103.143 33.0681 102.806 31.6515 102.806 30.0343C102.806 28.299 103.137 26.7762 103.798 25.4659C104.471 24.1556 105.421 23.1286 106.649 22.3849C107.888 21.6412 109.352 21.2694 111.04 21.2694C112.48 21.2694 113.72 21.5586 114.758 22.137C115.797 22.7154 116.594 23.5123 117.149 24.5275C117.716 25.5427 117.999 26.7054 117.999 28.0157Z" fill="#F2F2F8"/>
<path d="M0 42.0355V29.7681L31.2733 38.2343V50.5017L0 42.0355Z" fill="#F2F2F8"/>
<path d="M0 26.3123V14.0449L31.2733 22.5112V34.7786L0 26.3123Z" fill="#F2F2F8"/>
<rect y="0.741211" width="23.1526" height="11.5763" fill="#F2F2F8"/>
</svg>
