<svg xmlns="http://www.w3.org/2000/svg" width="1059" height="396" fill="none" viewBox="0 0 1059 396"><g opacity=".25"><path fill="url(#paint0_linear_2042_53)" fill-opacity=".5" d="M354.1 396L198.91 396L306.013 0.375606L461.203 0.375599L354.1 396Z"/><path fill="url(#paint1_linear_2042_53)" fill-opacity=".5" d="M553.26 396L398.07 396L505.173 0.375606L660.363 0.375599L553.26 396Z"/><path fill="url(#paint2_linear_2042_53)" fill-opacity=".5" d="M752.426 396L597.236 396L704.339 0.375606L859.529 0.375599L752.426 396Z"/><path fill="url(#paint3_linear_2042_53)" fill-opacity=".5" d="M951.596 396L796.406 396L903.509 0.375606L1058.7 0.375599L951.596 396Z"/><path fill="url(#paint4_linear_2042_53)" fill-opacity=".9" d="M155.19 396L0 396L107.103 0.375606L262.292 0.375599L155.19 396Z"/></g><defs><linearGradient id="paint0_linear_2042_53" x1="198.91" x2="461.203" y1="198.188" y2="198.188" gradientUnits="userSpaceOnUse"><stop stop-color="#F2F2F8" stop-opacity="0"/><stop offset="1" stop-color="#F2F2F8"/></linearGradient><linearGradient id="paint1_linear_2042_53" x1="398.07" x2="660.363" y1="198.188" y2="198.188" gradientUnits="userSpaceOnUse"><stop stop-color="#F2F2F8" stop-opacity="0"/><stop offset="1" stop-color="#F2F2F8"/></linearGradient><linearGradient id="paint2_linear_2042_53" x1="597.236" x2="859.529" y1="198.188" y2="198.188" gradientUnits="userSpaceOnUse"><stop stop-color="#F2F2F8" stop-opacity="0"/><stop offset="1" stop-color="#F2F2F8"/></linearGradient><linearGradient id="paint3_linear_2042_53" x1="796.406" x2="1058.7" y1="198.188" y2="198.188" gradientUnits="userSpaceOnUse"><stop stop-color="#F2F2F8" stop-opacity="0"/><stop offset="1" stop-color="#F2F2F8"/></linearGradient><linearGradient id="paint4_linear_2042_53" x1="0" x2="262.292" y1="198.188" y2="197.095" gradientUnits="userSpaceOnUse"><stop stop-opacity="0"/><stop offset="1" stop-color="#F2F2F8"/></linearGradient></defs></svg>